<?xml version="1.0" encoding="UTF-8" standalone="no"?>
<!-- Created with Inkscape (http://www.inkscape.org/) -->

<svg
   width="1200"
   height="675"
   viewBox="0 0 317.49999 178.59376"
   version="1.1"
   id="svg5"
   inkscape:version="1.1 (c4e8f9e, 2021-05-24)"
   sodipodi:docname="featured.svg"
   inkscape:export-filename="/Users/adamc/Projects/adamcampbell-website-update/content/post/2021-08-29-wowchemy-customisations/featured.png"
   inkscape:export-xdpi="96"
   inkscape:export-ydpi="96"
   xmlns:inkscape="http://www.inkscape.org/namespaces/inkscape"
   xmlns:sodipodi="http://sodipodi.sourceforge.net/DTD/sodipodi-0.dtd"
   xmlns="http://www.w3.org/2000/svg"
   xmlns:svg="http://www.w3.org/2000/svg">
  <sodipodi:namedview
     id="namedview7"
     pagecolor="#505050"
     bordercolor="#ffffff"
     borderopacity="1"
     inkscape:pageshadow="0"
     inkscape:pageopacity="0"
     inkscape:pagecheckerboard="1"
     inkscape:document-units="mm"
     showgrid="false"
     units="px"
     inkscape:zoom="0.68158229"
     inkscape:cx="529.64991"
     inkscape:cy="368.26074"
     inkscape:window-width="1440"
     inkscape:window-height="900"
     inkscape:window-x="0"
     inkscape:window-y="0"
     inkscape:window-maximized="0"
     inkscape:current-layer="layer1" />
  <defs
     id="defs2" />
  <g
     inkscape:label="Layer 1"
     inkscape:groupmode="layer"
     id="layer1">
    <rect
       style="fill:#f4a261;fill-opacity:1;fill-rule:evenodd;stroke-width:0.264583"
       id="rect31"
       width="317.53931"
       height="178.17914"
       x="0.10623631"
       y="0.21247229" />
    <path
       d="m 125.70019,79.730517 c -0.64489,0 -1.14429,0.141562 -1.49819,0.432546 -0.35391,0.287055 -0.53872,0.735326 -0.53872,1.336959 v 22.767638 h 3.79459 v -8.949766 c 0,-1.443131 0.38143,-2.595277 1.13643,-3.460368 0.77466,-0.888684 1.91501,-1.336959 3.42497,-1.336959 1.48639,0 2.53238,0.38143 3.13401,1.136414 0.6213,0.754991 0.92802,1.859946 0.92802,3.322738 v 9.295801 h 3.7946 V 93.847238 c 0,-1.136418 -0.16516,-2.123409 -0.4994,-2.968838 a 5.4264835,5.4264835 0 0 0 -1.42742,-2.095883 6.0517085,6.0517085 0 0 0 -2.23742,-1.297636 8.5879998,8.5879998 0 0 0 -2.79191,-0.432546 c -1.42348,0 -2.57952,0.235936 -3.46428,0.69994 a 6.4999834,6.4999834 0 0 0 -1.9976,1.498178 v -9.158171 a 6.8656811,6.8656811 0 0 0 -0.66062,-0.196614 3.4603662,3.4603662 0 0 0 -1.10099,-0.165155 z m -58.248198,7.357209 a 9.830586,9.830586 0 0 0 -3.625508,0.668481 8.761018,8.761018 0 0 0 -4.824853,4.655765 c -0.467939,1.061704 -0.699943,2.23744 -0.699943,3.499686 0,1.246521 0.235936,2.41046 0.699943,3.49969 0.464008,1.061702 1.112832,1.993642 1.934636,2.791882 0.821844,0.77859 1.78525,1.39988 2.894149,1.86782 1.132454,0.44434 2.339659,0.66061 3.625506,0.66061 1.28586,0 2.48516,-0.21627 3.59406,-0.66061 1.13249,-0.46794 2.11162,-1.08923 2.93347,-1.86782 0.82574,-0.79824 1.46276,-1.73018 1.92677,-2.791882 0.46794,-1.08923 0.69994,-2.253169 0.69994,-3.49969 a 8.654848,8.654848 0 0 0 -2.62671,-6.295504 8.705967,8.705967 0 0 0 -2.93347,-1.859947 9.5867874,9.5867874 0 0 0 -3.59406,-0.668481 z m 47.992938,0 c -1.28585,0 -2.50092,0.200545 -3.63338,0.601633 -1.1089,0.377497 -2.0723,0.943736 -2.89415,1.694791 a 7.8723331,7.8723331 0 0 0 -1.92677,2.795818 9.716551,9.716551 0 0 0 -0.69994,3.794606 c 0,1.419537 0.23593,2.673922 0.69994,3.763148 0.4876,1.089228 1.13639,2.009378 1.95823,2.764368 0.82185,0.73532 1.77739,1.28977 2.86269,1.66726 1.0892,0.3775 2.25315,0.56231 3.49575,0.56231 a 12.307894,12.307894 0 0 0 3.83391,-0.56231 c 0.51119,-0.17695 0.95161,-0.35783 1.32911,-0.53871 0.39715,-0.19662 0.7314,-0.38143 0.99486,-0.55838 l -1.5965,-2.83121 a 13.015696,13.015696 0 0 1 -1.39596,0.69601 c -0.66848,0.28705 -1.55713,0.43647 -2.66603,0.43647 -0.77858,0 -1.49426,-0.10617 -2.15881,-0.30671 a 5.1354982,5.1354982 0 0 1 -1.76948,-0.99879 4.5220696,4.5220696 0 0 1 -1.19541,-1.694796 6.4409998,6.4409998 0 0 1 -0.43648,-2.496966 c 0,-0.931944 0.1337,-1.730186 0.39716,-2.398664 a 4.9546154,4.9546154 0 0 1 1.14036,-1.694795 c 0.4876,-0.467936 1.04987,-0.806107 1.69476,-1.030246 0.66849,-0.220207 1.3763,-0.338175 2.12735,-0.338175 1.1089,0 2.04474,0.184817 2.7958,0.538717 0.755,0.334243 1.33697,0.68421 1.73806,1.061704 0.26347,-0.200546 0.53873,-0.483665 0.82578,-0.865091 a 1.9149981,1.9149981 0 0 0 0.47187,-1.234724 1.7852344,1.7852344 0 0 0 -0.33031,-0.998788 2.6424615,2.6424615 0 0 0 -1.03812,-0.896549 6.9089356,6.9089356 0 0 0 -1.86782,-0.668477 12.244978,12.244978 0 0 0 -2.75254,-0.25953 z m 36.66413,0 c -1.30945,0 -2.51661,0.224139 -3.62158,0.668481 -1.08924,0.424681 -2.04478,1.030242 -2.86658,1.828489 a 8.4425071,8.4425071 0 0 0 -1.89535,2.827276 c -0.44435,1.08923 -0.66849,2.300356 -0.66849,3.633383 0,1.395943 0.232,2.634599 0.69601,3.723825 0.46794,1.06564 1.10104,1.97792 1.89925,2.73291 0.82184,0.73532 1.76952,1.28977 2.83123,1.66726 1.08924,0.3775 2.25315,0.56231 3.49968,0.56231 a 15.178425,15.178425 0 0 0 4.3923,-0.66061 c 0.57411,-0.17696 1.05778,-0.36964 1.43528,-0.57018 0.37749,-0.19661 0.64882,-0.3539 0.82577,-0.46794 l -1.39595,-2.66605 a 24.576465,24.576465 0 0 1 -0.62916,0.30279 7.7229082,7.7229082 0 0 1 -0.9988,0.39715 8.4385749,8.4385749 0 0 1 -2.90197,0.47187 c -1.71054,0 -3.02781,-0.34211 -3.95582,-1.03025 a 4.227152,4.227152 0 0 1 -1.63583,-2.768286 l 1.23473,0.07078 h 1.25833 c 1.91104,0 3.49181,-0.125832 4.73441,-0.369633 1.24256,-0.263462 2.22956,-0.621294 2.96489,-1.065636 a 3.9322343,3.9322343 0 0 0 1.52572,-1.627947 c 0.29099,-0.644888 0.43255,-1.360553 0.43255,-2.135205 a 4.7265455,4.7265455 0 0 0 -1.85996,-3.853587 6.5078479,6.5078479 0 0 0 -2.23353,-1.199333 9.2643442,9.2643442 0 0 0 -3.06713,-0.471867 z m 17.31361,0 c -1.04594,0 -2.00541,0.141561 -2.89804,0.432545 a 6.8420879,6.8420879 0 0 0 -2.33179,1.199334 5.7135367,5.7135367 0 0 0 -1.52965,1.993639 c -0.3775,0.802179 -0.57018,1.730186 -0.57018,2.795823 v 10.762523 h 3.7946 v -9.457023 c 0,-1.533572 0.35783,-2.634599 1.06957,-3.303076 0.70781,-0.66455 1.63976,-0.994856 2.79187,-0.994856 a 3.892912,3.892912 0 0 1 2.83123,1.097095 c 0.77466,0.731393 1.16396,1.918926 1.16396,3.562602 v 9.095258 h 3.79459 v -9.095258 c 0,-1.643676 0.38143,-2.831209 1.14036,-3.562602 0.77462,-0.731398 1.73016,-1.101027 2.86265,-1.101027 1.17575,0 2.10766,0.334242 2.79187,0.998788 0.69208,0.644884 1.03026,1.734114 1.03026,3.263754 v 9.496345 h 3.79459 V 93.477608 c 0,-1.061704 -0.18088,-1.993643 -0.55838,-2.791889 a 5.7331976,5.7331976 0 0 0 -1.53354,-1.997572 6.4685256,6.4685256 0 0 0 -2.30038,-1.199334 9.9328241,9.9328241 0 0 0 -2.86265,-0.401087 c -1.35663,0 -2.55991,0.259529 -3.62551,0.770716 -1.06564,0.511191 -1.92288,1.258318 -2.56777,2.257106 a 6.1028276,6.1028276 0 0 0 -2.59526,-2.257106 8.5919321,8.5919321 0 0 0 -3.69633,-0.770716 z M 32.116919,87.559594 c -0.644852,0 -1.116724,0.17302 -1.431306,0.52692 a 1.8088278,1.8088278 0 0 0 -0.46794,1.230787 c 0,0.267395 0.07865,0.723534 0.232004,1.368418 0.176952,0.621294 0.46794,1.517843 0.865099,2.693583 0.424645,1.156074 0.983027,2.618866 1.667242,4.392307 0.71174,1.777368 1.612229,3.944031 2.697535,6.499981 h 3.924363 c 0.176952,-0.46793 0.408956,-1.14821 0.699943,-2.0369 L 41.2397,99.269786 c 0.353904,-1.0617 0.696011,-2.146998 1.030254,-3.255889 0.353904,-1.132481 0.680282,-2.170592 0.967337,-3.106463 0.287056,0.935871 0.597705,1.973982 0.928015,3.106463 0.353904,1.108891 0.711741,2.190257 1.069577,3.255889 0.353904,1.065634 0.67635,2.056564 0.967298,2.964904 0.310649,0.88869 0.550518,1.5729 0.72747,2.0369 h 3.924363 c 0.558382,-1.26618 1.148222,-2.67785 1.76952,-4.23501 0.621298,-1.5729 1.211138,-3.106473 1.765588,-4.592858 0.550517,-1.506042 1.053808,-2.905918 1.494222,-4.191761 0.448278,-1.285839 0.754995,-2.300356 0.931947,-3.03175 A 4.8916996,4.8916996 0 0 0 56.186128,87.858442 3.1339908,3.1339908 0 0 0 54.719432,87.55959 c -0.668485,0 -1.163951,0.165155 -1.498194,0.499394 -0.314581,0.310649 -0.562314,0.806107 -0.758927,1.49425 -0.511195,1.820623 -1.085306,3.641247 -1.706604,5.461871 -0.597665,1.820628 -1.179641,3.491826 -1.757684,5.021465 A 259.3977,259.3977 0 0 1 48.097534,97.441294 619.44879,619.44879 0 0 1 46.1314,91.149718 c -0.33031,-1.108887 -0.64092,-2.162727 -0.927975,-3.161515 a 6.3584229,6.3584229 0 0 0 -0.668486,-0.232004 3.389586,3.389586 0 0 0 -1.199341,-0.196613 c -0.707808,0 -1.2308,0.149426 -1.565042,0.460071 a 2.8941245,2.8941245 0 0 0 -0.731363,1.297641 141.99298,141.99298 0 0 1 -1.698739,5.630959 202.746,202.746 0 0 1 -0.865099,2.725041 c -0.267394,0.888684 -0.522991,1.67513 -0.766792,2.363272 a 151.07645,151.07645 0 0 0 -0.931947,-2.626734 c -0.33031,-0.998788 -0.680243,-2.044759 -1.034147,-3.130057 a 129.43736,129.43736 0 0 1 -1.926811,-6.389883 3.7356226,3.7356226 0 0 0 -1.698739,-0.33031 z m 47.922143,0 c -0.64096,0 -1.12459,0.17302 -1.43524,0.52692 a 1.8009633,1.8009633 0 0 0 -0.46007,1.230787 c 0,0.267395 0.0747,0.723534 0.22807,1.368418 0.18088,0.621294 0.47187,1.517843 0.86903,2.693583 0.42075,1.156074 0.979105,2.618866 1.667245,4.392307 0.70781,1.777368 1.6083,3.944031 2.69754,6.499981 h 3.92436 c 0.17695,-0.46793 0.40896,-1.14821 0.69601,-2.0369 l 0.93981,-2.964904 c 0.35391,-1.0617 0.69598,-2.146998 1.02629,-3.255889 0.3539,-1.132481 0.68028,-2.170592 0.96733,-3.106463 0.29099,0.935871 0.59771,1.973982 0.93195,3.106463 0.3539,1.108891 0.70781,2.190257 1.06564,3.255889 0.35391,1.065634 0.68029,2.056564 0.9673,2.964904 0.31458,0.88869 0.55052,1.5729 0.7314,2.0369 h 3.92437 c 0.55445,-1.26618 1.14429,-2.67785 1.769523,-4.23501 0.61736,-1.5729 1.2072,-3.106473 1.76165,-4.592858 0.55445,-1.506042 1.05381,-2.905918 1.49816,-4.191761 0.44434,-1.285839 0.75106,-2.300356 0.93195,-3.03175 a 4.8916996,4.8916996 0 0 0 -0.62917,-0.361769 3.1339908,3.1339908 0 0 0 -1.47063,-0.298852 c -0.66455,0 -1.16395,0.165155 -1.49426,0.499394 -0.31458,0.310649 -0.57018,0.806107 -0.77072,1.494246 -0.511203,1.820623 -1.073513,3.641247 -1.698743,5.461871 -0.59767,1.820628 -1.17964,3.491826 -1.75769,5.021469 a 259.29547,259.29547 0 0 1 -0.89655,-2.59528 619.44879,619.44879 0 0 1 -1.96614,-6.291576 c -0.33424,-1.108887 -0.64878,-2.162727 -0.93977,-3.161515 a 5.9769962,5.9769962 0 0 0 -0.66062,-0.232004 3.389586,3.389586 0 0 0 -1.19541,-0.196613 c -0.70781,0 -1.23473,0.149426 -1.56897,0.460071 a 2.8941245,2.8941245 0 0 0 -0.72747,1.297637 141.99298,141.99298 0 0 1 -1.6987,5.630963 202.746,202.746 0 0 1 -0.8651,2.725037 c -0.26739,0.888684 -0.52692,1.67513 -0.77072,2.36327 a 151.07645,151.07645 0 0 0 -0.92802,-2.626728 c -0.33424,-0.998788 -0.68421,-2.044759 -1.03808,-3.130057 a 129.43736,129.43736 0 0 1 -1.92681,-6.389883 3.7356226,3.7356226 0 0 0 -1.698745,-0.33031 z m 115.002138,0 a 2.264967,2.264967 0 0 0 -1.46674,0.428613 c -0.3539,0.287055 -0.52688,0.727465 -0.52688,1.329094 v 8.257694 c 0,1.085298 0.17302,2.048696 0.52688,2.894125 0.3775,0.8415 0.89263,1.55717 1.53358,2.1352 0.64883,0.55052 1.41955,0.98306 2.33184,1.29764 0.90831,0.28706 1.89924,0.43255 2.96489,0.43255 1.13249,0 2.16275,-0.18482 3.09465,-0.56231 0.95161,-0.40109 1.65156,-0.92408 2.0959,-1.56897 0,1.15608 -0.1337,2.11162 -0.40109,2.8666 a 4.278271,4.278271 0 0 1 -1.0971,1.85602 3.6963003,3.6963003 0 0 1 -1.73016,0.96733 c -0.68421,0.20055 -1.46674,0.30278 -2.33183,0.30278 -0.66849,0 -1.29765,-0.0315 -1.89929,-0.10223 a 13.298817,13.298817 0 0 1 -1.55714,-0.2674 9.4294979,9.4294979 0 0 1 -1.93467,-0.56231 l -0.47187,1.39988 c -0.15336,0.4876 -0.31852,0.95947 -0.49547,1.4274 0.15729,0.0669 0.42862,0.15729 0.80611,0.2674 0.3775,0.13369 0.84937,0.26739 1.42742,0.40108 0.5977,0.1337 1.27405,0.23987 2.02901,0.33031 0.75499,0.11011 1.5847,0.16909 2.49305,0.16909 1.33698,0 2.54807,-0.16515 3.63338,-0.49939 1.08924,-0.31065 2.02119,-0.81791 2.79584,-1.52964 0.77855,-0.70781 1.37626,-1.62402 1.79701,-2.73291 0.42075,-1.08923 0.63703,-2.41832 0.63703,-3.99515 V 87.917426 a 6.7634429,6.7634429 0 0 0 -0.69602,-0.196613 3.5075531,3.5075531 0 0 0 -1.10889,-0.161223 2.2413736,2.2413736 0 0 0 -1.4549,0.428613 c -0.35784,0.287056 -0.53872,0.731398 -0.53872,1.329098 v 7.125209 c 0,1.533569 -0.38537,2.697512 -1.16002,3.499686 -0.77859,0.774654 -1.84813,1.163944 -3.20476,1.163944 -1.4628,0 -2.54418,-0.39323 -3.25592,-1.167876 -0.68811,-0.774645 -1.03808,-1.816688 -1.03808,-3.126121 v -8.894717 a 6.7634429,6.7634429 0 0 0 -0.69601,-0.196613 3.4603662,3.4603662 0 0 0 -1.10103,-0.161219 z m -42.99112,2.457647 c 0.99879,0 1.8285,0.204478 2.49699,0.629159 0.6881,0.420748 1.02628,1.0617 1.02628,1.903201 a 2.398663,2.398663 0 0 1 -0.19662,0.959466 1.8678113,1.8678113 0 0 1 -0.82966,0.837565 6.0281153,6.0281153 0 0 1 -1.76952,0.597696 c -0.755,0.157291 -1.742,0.235936 -2.96489,0.235936 h -1.39596 c -0.46794,0 -0.94768,-0.0118 -1.45887,-0.03539 a 5.3085163,5.3085163 0 0 1 1.36056,-3.53114 4.6007142,4.6007142 0 0 1 1.56505,-1.167876 c 0.62125,-0.290988 1.34479,-0.432545 2.1627,-0.432545 z m -84.598088,0.397155 c 0.755,0 1.45494,0.149426 2.0959,0.436478 0.64485,0.267394 1.19144,0.640955 1.63578,1.132485 0.46794,0.487597 0.81792,1.077429 1.06172,1.765572 0.26739,0.668481 0.39716,1.388078 0.39716,2.162727 0,0.778585 -0.12977,1.49425 -0.39716,2.162731 a 5.3753645,5.3753645 0 0 1 -1.06172,1.730182 4.883835,4.883835 0 0 1 -1.63578,1.171809 5.4304158,5.4304158 0 0 1 -2.0959,0.39715 c -0.77465,0 -1.482462,-0.13369 -2.123422,-0.39715 A 5.3714322,5.3714322 0 0 1 63.688854,99.808503 6.2797784,6.2797784 0 0 1 62.627142,98.070457 6.2050657,6.2050657 0 0 1 62.261441,95.91559 c 0,-0.778581 0.121901,-1.50211 0.369634,-2.166659 0.263461,-0.688143 0.613433,-1.277975 1.061712,-1.769505 0.464007,-0.487597 1.010592,-0.861158 1.631851,-1.128552 0.644892,-0.287056 1.352704,-0.432546 2.127354,-0.432546 z"
       fill="#ff4655"
       stroke-width="1.04204"
       id="path1072"
       style="line-height:1.25" />
    <path
       fill="currentColor"
       d="m 279.87699,45.450626 -1.21456,2.118069 c -0.44435,0.785019 -1.39229,1.110876 -2.23656,0.79983 -1.74778,-0.651713 -3.34744,-1.584848 -4.75455,-2.754971 -0.68134,-0.562843 -0.85908,-1.555226 -0.41473,-2.325433 l 1.21457,-2.11807 c -1.02201,-1.184933 -1.82184,-2.562419 -2.35506,-4.058398 h -2.44393 c -0.8887,0 -1.65891,-0.636902 -1.80702,-1.525603 -0.29624,-1.777401 -0.31105,-3.643672 0,-5.495131 0.14811,-0.888701 0.91832,-1.540415 1.80702,-1.540415 h 2.44393 c 0.53322,-1.495978 1.33305,-2.873464 2.35506,-4.058398 l -1.21457,-2.118069 c -0.44435,-0.770208 -0.28141,-1.76259 0.41473,-2.325434 1.40711,-1.170122 3.02159,-2.103257 4.75455,-2.754971 0.84427,-0.311046 1.79221,0.01481 2.23656,0.79983 l 1.21456,2.11807 c 1.55523,-0.281422 3.14008,-0.281422 4.6953,0 l 1.21456,-2.11807 c 0.44435,-0.785018 1.3923,-1.110876 2.23656,-0.79983 1.74778,0.651714 3.34744,1.584849 4.75455,2.754971 0.68134,0.562844 0.85908,1.555226 0.41473,2.325434 l -1.21456,2.118069 c 1.02201,1.184934 1.82184,2.56242 2.35506,4.058398 h 2.44392 c 0.8887,0 1.65891,0.636903 1.80703,1.525603 0.29623,1.777401 0.31104,3.643672 0,5.495131 -0.14812,0.888701 -0.91833,1.540415 -1.80703,1.540415 h -2.44392 c -0.53322,1.495979 -1.33305,2.873465 -2.35506,4.058398 l 1.21456,2.11807 c 0.44435,0.770207 0.28142,1.76259 -0.41473,2.325433 -1.40711,1.170123 -3.02158,2.103258 -4.75455,2.754971 -0.84426,0.311046 -1.79221,-0.01481 -2.23656,-0.79983 l -1.21456,-2.118069 c -1.54041,0.281422 -3.14007,0.281422 -4.6953,0 z m -1.55522,-8.709265 c 5.70249,4.384255 12.20482,-2.11807 7.82056,-7.820564 -5.7025,-4.399068 -12.20482,2.118069 -7.82056,7.820564 z m -17.07787,22.795168 4.99154,2.488359 c 1.49598,0.859081 2.14769,2.680915 1.55522,4.310201 -1.31824,3.584431 -3.91028,6.872611 -6.30977,9.746081 -1.09606,1.31824 -2.99195,1.6441 -4.48794,0.78502 l -4.31019,-2.48836 c -2.36987,2.02919 -5.12484,3.64367 -8.13161,4.6953 v 4.97672 c 0,1.71815 -1.22937,3.19932 -2.9179,3.49556 -3.64367,0.62209 -7.46509,0.65171 -11.24206,0 -1.70334,-0.29624 -2.96234,-1.76259 -2.96234,-3.49556 v -4.97672 c -3.00677,-1.06645 -5.76174,-2.66611 -8.13161,-4.6953 l -4.31019,2.47354 c -1.48117,0.85909 -3.39188,0.53322 -4.48794,-0.78501 -2.39949,-2.87347 -4.93229,-6.16166 -6.25053,-9.731271 -0.59247,-1.614474 0.0593,-3.436307 1.55523,-4.310201 l 4.93228,-2.488359 c -0.57765,-3.09564 -0.57765,-6.280151 0,-9.390603 l -4.93228,-2.503172 c -1.49598,-0.859077 -2.16251,-2.680913 -1.55523,-4.295386 1.31824,-3.584425 3.85104,-6.872617 6.25053,-9.746082 1.09606,-1.318239 2.99196,-1.644096 4.48794,-0.785019 l 4.3102,2.488361 c 2.36986,-2.029199 5.12483,-3.643672 8.1316,-4.6953 v -4.991535 c 0,-1.703343 1.21456,-3.18451 2.90309,-3.480744 3.64367,-0.62209 7.4799,-0.651713 11.25688,-0.01481 1.70334,0.296233 2.96233,1.762589 2.96233,3.495555 v 4.976722 c 3.00677,1.066441 5.76174,2.666102 8.13161,4.695302 l 4.31019,-2.488362 c 1.48118,-0.859077 3.39188,-0.53322 4.48794,0.785019 2.39949,2.873465 4.91748,6.161657 6.23571,9.746082 0.59248,1.614472 0.0148,3.436308 -1.48116,4.310197 l -4.99154,2.488362 c 0.57766,3.110452 0.57766,6.294962 0,9.405413 z m -17.41852,3.125262 c 8.76851,-11.404989 -4.25096,-24.424451 -15.65594,-15.655939 -8.76852,11.404989 4.25095,24.424458 15.65594,15.655939 z m 36.05161,27.060929 -1.21456,2.11807 c -0.44435,0.78502 -1.39229,1.11088 -2.23656,0.79983 -1.74778,-0.65171 -3.34744,-1.58485 -4.75455,-2.75497 -0.68134,-0.56284 -0.85908,-1.55523 -0.41473,-2.32543 l 1.21457,-2.11807 c -1.02201,-1.18494 -1.82184,-2.56243 -2.35506,-4.0584 h -2.44393 c -0.8887,0 -1.65891,-0.63691 -1.80702,-1.52561 -0.29624,-1.7774 -0.31105,-3.64367 0,-5.49513 0.14811,-0.8887 0.91832,-1.54041 1.80702,-1.54041 h 2.44393 c 0.53322,-1.49598 1.33305,-2.87346 2.35506,-4.05839 l -1.21457,-2.118079 c -0.44435,-0.770205 -0.28141,-1.762588 0.41473,-2.325428 1.40711,-1.170124 3.02159,-2.103262 4.75455,-2.754975 0.84427,-0.311045 1.79221,0.01481 2.23656,0.799828 l 1.21456,2.118074 c 1.55523,-0.281423 3.14008,-0.281423 4.6953,0 l 1.21456,-2.118074 c 0.44435,-0.785016 1.3923,-1.110873 2.23656,-0.799828 1.74778,0.651713 3.34744,1.584851 4.75455,2.754975 0.68134,0.56284 0.85908,1.555223 0.41473,2.325428 l -1.21456,2.118079 c 1.02201,1.18493 1.82184,2.56241 2.35506,4.05839 h 2.44392 c 0.8887,0 1.65891,0.6369 1.80703,1.5256 0.29623,1.7774 0.31104,3.64367 0,5.49514 -0.14812,0.8887 -0.91833,1.54041 -1.80703,1.54041 h -2.44392 c -0.53322,1.49597 -1.33305,2.87346 -2.35506,4.0584 l 1.21456,2.11807 c 0.44435,0.7702 0.28142,1.76259 -0.41473,2.32543 -1.40711,1.17012 -3.02158,2.10326 -4.75455,2.75497 -0.84426,0.31105 -1.79221,-0.0148 -2.23656,-0.79983 l -1.21456,-2.11807 c -1.54041,0.28142 -3.14007,0.28142 -4.6953,0 z m -1.55522,-8.72407 c 5.70249,4.38425 12.20482,-2.11808 7.82056,-7.82057 -5.7025,-4.38426 -12.20482,2.11807 -7.82056,7.82057 z"
       id="path1206"
       style="fill:#264653;fill-opacity:1;stroke-width:0.148117" />
    <text
       xml:space="preserve"
       style="font-style:normal;font-weight:normal;font-size:19.7556px;line-height:1.25;font-family:sans-serif;fill:#ff4650;fill-opacity:1;stroke:none;stroke-width:0.264583"
       x="75.308838"
       y="130.81998"
       id="text1763"><tspan
         sodipodi:role="line"
         id="tspan1761"
         style="font-style:normal;font-variant:normal;font-weight:normal;font-stretch:normal;font-size:19.7556px;font-family:'Fira Mono';-inkscape-font-specification:'Fira Mono';fill:#ff4650;fill-opacity:1;stroke-width:0.264583"
         x="75.308838"
         y="130.81998">customisations</tspan></text>
  </g>
</svg>
